<svg width="17" height="16" viewBox="0 0 17 16" fill="none" xmlns="http://www.w3.org/2000/svg">
<mask id="mask0_1_1941" style="mask-type:alpha" maskUnits="userSpaceOnUse" x="0" y="0" width="17" height="16">
<rect x="16.748" width="16" height="16" transform="rotate(90 16.748 0)" fill="#D9D9D9"/>
</mask>
<g mask="url(#mask0_1_1941)">
<path d="M8.74803 9.58336L13.448 4.88336C13.6036 4.7278 13.7925 4.65002 14.0147 4.65002C14.2369 4.65002 14.4258 4.7278 14.5814 4.88336C14.7369 5.03891 14.8147 5.2278 14.8147 5.45002C14.8147 5.67225 14.7369 5.86114 14.5814 6.01669L9.59803 11C9.47581 11.1222 9.34248 11.2111 9.19803 11.2667C9.05359 11.3222 8.90359 11.35 8.74803 11.35C8.59248 11.35 8.44247 11.3222 8.29803 11.2667C8.15359 11.2111 8.02025 11.1222 7.89803 11L2.9147 6.01669C2.75914 5.86114 2.68136 5.67225 2.68136 5.45002C2.68136 5.2278 2.75914 5.03891 2.9147 4.88336C3.07025 4.7278 3.25914 4.65002 3.48136 4.65002C3.70359 4.65002 3.89248 4.7278 4.04803 4.88336L8.74803 9.58336Z" fill="black" fill-opacity="0.5"/>
</g>
</svg>
