<svg width="192" height="24" viewBox="0 0 192 24" fill="none" xmlns="http://www.w3.org/2000/svg">
<path d="M19.3838 4.43127L24.3275 9.37496L25.6986 8.00391L20.7549 3.06022C17.1766 -0.517357 13.568 -0.316251 11.1709 0.483236C8.63982 1.33 6.95687 2.99036 6.88631 3.06022L0 9.94935L1.37105 11.3183L8.25595 4.43339C8.48387 4.20688 13.9102 -1.04235 19.3838 4.43127Z" fill="#2E2A2A"/>
<path d="M47.4767 12.6823L40.5918 19.5672C40.3639 19.793 34.9382 25.0422 29.4639 19.5672L24.5209 14.6249L23.1492 15.996L28.0929 20.9397C30.4285 23.2746 32.7762 24 34.7922 24C35.7734 23.995 36.7474 23.832 37.6768 23.5174C40.2086 22.6706 41.8909 21.0102 41.9614 20.9397L48.8478 14.0534L47.4767 12.6823Z" fill="#2E2A2A"/>
<path d="M14.0845 8.01094C15.2918 8.07515 16.1513 9.12514 16.1562 9.13079L16.1922 9.17665L19.7909 12.7754L20.3787 13.4105L21.8041 12.0923L21.2036 11.4439L17.6395 7.87828C17.3854 7.57839 16.1146 6.18969 14.2171 6.07608C12.8284 5.99353 11.4891 6.58908 10.2317 7.84653L6.05078 12.0274L13.8579 19.8353L19.6597 14.0335L18.2886 12.6625L13.8579 17.0925L8.79289 12.0274L11.6034 9.21758C12.4467 8.37434 13.2814 7.9679 14.0845 8.01094Z" fill="#2E2A2A"/>
<path d="M34.9615 15.9473C33.7541 15.8831 32.8947 14.8331 32.8897 14.8274L32.8537 14.7816L29.255 11.1828L28.6679 10.5478L27.2446 11.8652L27.8444 12.5137L31.4093 16.0792C31.6626 16.3791 32.9335 17.7678 34.8309 17.8814C34.9156 17.8864 35.0003 17.8892 35.0843 17.8892C36.3798 17.8892 37.633 17.2915 38.8135 16.111L42.9951 11.9252L35.188 4.12012L29.3862 9.92186L30.758 11.2901L35.188 6.8601L40.253 11.9252L37.4432 14.735C36.5993 15.5818 35.7638 15.9875 34.9615 15.9473Z" fill="#2E2A2A"/>
<path d="M44.2816 11.9788L38.3226 17.9386C37.8286 18.2808 34.3773 20.5163 31.8575 17.9957L26.6259 12.7642L25.2549 14.1359L30.4836 19.3668C32.0925 20.9756 34.1903 21.4901 36.5521 20.8557C37.6152 20.562 38.621 20.0908 39.5271 19.4621L39.5863 19.4183L47.0245 11.9788L35.0533 0.00836182L13.8885 21.1732L4.66932 11.9541L10.1853 6.43812C11.6509 4.97252 13.2859 4.51103 15.045 5.06425C15.9301 5.35734 16.7464 5.82741 17.4442 6.44588L22.3131 11.3183L23.6884 9.94937L18.8082 5.06637L18.7976 5.05578C17.9024 4.24338 16.8489 3.62477 15.7034 3.23877C13.9626 2.67426 11.3545 2.52678 8.81423 5.06637L1.92651 11.9541L13.8885 23.916L35.0533 2.75188L44.2816 11.9788Z" fill="#2E2A2A"/>
<path d="M185.803 10.9712H190.901V12.8774H185.803V10.9712ZM185.984 15.3281H191.748V17.2948H183.549V6.70508H191.551V8.67173H185.984V15.3281Z" fill="#2E2A2A"/>
<path d="M173.75 17.4763C172.903 17.4763 172.091 17.3653 171.315 17.1434C170.538 16.9115 169.913 16.614 169.439 16.2509L170.271 14.4053C170.725 14.728 171.259 14.9952 171.875 15.207C172.5 15.4087 173.13 15.5096 173.766 15.5096C174.25 15.5096 174.638 15.4642 174.93 15.3735C175.233 15.2726 175.455 15.1364 175.596 14.965C175.737 14.7935 175.808 14.5969 175.808 14.375C175.808 14.0926 175.697 13.8707 175.475 13.7094C175.253 13.5379 174.961 13.4018 174.598 13.3009C174.235 13.19 173.831 13.0891 173.387 12.9983C172.954 12.8975 172.515 12.7765 172.071 12.6353C171.638 12.4941 171.239 12.3125 170.876 12.0906C170.513 11.8688 170.216 11.5763 169.984 11.2132C169.762 10.8501 169.651 10.3862 169.651 9.82143C169.651 9.2163 169.812 8.66665 170.135 8.17246C170.468 7.66819 170.962 7.26982 171.617 6.97734C172.283 6.67478 173.115 6.5235 174.114 6.5235C174.779 6.5235 175.435 6.60418 176.08 6.76555C176.726 6.91683 177.296 7.14879 177.79 7.46144L177.033 9.3222C176.539 9.03981 176.045 8.83306 175.551 8.70195C175.057 8.56075 174.572 8.49015 174.098 8.49015C173.624 8.49015 173.236 8.54562 172.934 8.65656C172.631 8.7675 172.414 8.91374 172.283 9.09528C172.152 9.26673 172.086 9.46844 172.086 9.7004C172.086 9.97271 172.197 10.1946 172.419 10.366C172.641 10.5274 172.934 10.6585 173.297 10.7594C173.66 10.8602 174.058 10.9611 174.492 11.0619C174.936 11.1628 175.374 11.2788 175.808 11.4099C176.252 11.541 176.655 11.7175 177.018 11.9394C177.381 12.1612 177.674 12.4537 177.896 12.8168C178.128 13.1799 178.244 13.6388 178.244 14.1935C178.244 14.7885 178.077 15.3331 177.744 15.8273C177.411 16.3215 176.912 16.7199 176.247 17.0224C175.591 17.325 174.759 17.4763 173.75 17.4763Z" fill="#2E2A2A"/>
<path d="M157.569 17.2948V6.70508H160.02V15.2979H165.33V17.2948H157.569Z" fill="#2E2A2A"/>
<path d="M146.721 17.4763C145.218 17.4763 144.043 17.0578 143.196 16.2207C142.349 15.3836 141.925 14.1885 141.925 12.6353V6.70508H144.376V12.5445C144.376 13.5531 144.583 14.2792 144.996 14.723C145.41 15.1667 145.99 15.3886 146.736 15.3886C147.482 15.3886 148.062 15.1667 148.476 14.723C148.889 14.2792 149.096 13.5531 149.096 12.5445V6.70508H151.517V12.6353C151.517 14.1885 151.093 15.3836 150.246 16.2207C149.399 17.0578 148.224 17.4763 146.721 17.4763Z" fill="#2E2A2A"/>
<path d="M127.497 17.2948V6.70508H132.081C133.029 6.70508 133.846 6.8614 134.532 7.17405C135.218 7.47661 135.747 7.91533 136.12 8.4902C136.493 9.06507 136.68 9.75087 136.68 10.5476C136.68 11.3343 136.493 12.015 136.12 12.5899C135.747 13.1648 135.218 13.6085 134.532 13.9212C133.846 14.2238 133.029 14.375 132.081 14.375H128.859L129.948 13.2707V17.2948H127.497ZM129.948 13.543L128.859 12.3781H131.945C132.701 12.3781 133.266 12.2168 133.639 11.894C134.012 11.5713 134.199 11.1225 134.199 10.5476C134.199 9.96267 134.012 9.50882 133.639 9.18609C133.266 8.86336 132.701 8.70199 131.945 8.70199H128.859L129.948 7.53712V13.543Z" fill="#2E2A2A"/>
<path d="M115.971 10.9712H121.069V12.8774H115.971V10.9712ZM116.153 15.3281H121.916V17.2948H113.717V6.70508H121.72V8.67173H116.153V15.3281Z" fill="#2E2A2A"/>
<path d="M95.6375 17.2948V6.70508H97.6646L102.173 14.1784H101.099L105.531 6.70508H107.543L107.574 17.2948H105.274L105.259 10.2299H105.683L102.143 16.1753H101.038L97.4226 10.2299H97.9369V17.2948H95.6375Z" fill="#2E2A2A"/>
<path d="M85.8393 17.4763C84.9922 17.4763 84.1803 17.3653 83.4037 17.1434C82.6271 16.9115 82.0018 16.614 81.5278 16.2509L82.3599 14.4053C82.8137 14.728 83.3482 14.9952 83.9635 15.207C84.5888 15.4087 85.2191 15.5096 85.8545 15.5096C86.3386 15.5096 86.7269 15.4642 87.0193 15.3735C87.3219 15.2726 87.5438 15.1364 87.685 14.965C87.8262 14.7935 87.8968 14.5969 87.8968 14.375C87.8968 14.0926 87.7858 13.8707 87.564 13.7094C87.3421 13.5379 87.0496 13.4018 86.6865 13.3009C86.3234 13.19 85.92 13.0891 85.4763 12.9983C85.0426 12.8975 84.6039 12.7765 84.1601 12.6353C83.7265 12.4941 83.3281 12.3125 82.965 12.0906C82.6019 11.8688 82.3044 11.5763 82.0724 11.2132C81.8506 10.8501 81.7396 10.3862 81.7396 9.82143C81.7396 9.2163 81.901 8.66665 82.2237 8.17246C82.5565 7.66819 83.0507 7.26982 83.7063 6.97734C84.3719 6.67478 85.204 6.5235 86.2024 6.5235C86.8681 6.5235 87.5236 6.60418 88.1691 6.76555C88.8145 6.91683 89.3844 7.14879 89.8786 7.46144L89.1221 9.3222C88.628 9.03981 88.1338 8.83306 87.6396 8.70195C87.1454 8.56075 86.6613 8.49015 86.1873 8.49015C85.7133 8.49015 85.325 8.54562 85.0224 8.65656C84.7199 8.7675 84.503 8.91374 84.3719 9.09528C84.2408 9.26673 84.1753 9.46844 84.1753 9.7004C84.1753 9.97271 84.2862 10.1946 84.5081 10.366C84.73 10.5274 85.0224 10.6585 85.3855 10.7594C85.7486 10.8602 86.147 10.9611 86.5806 11.0619C87.0244 11.1628 87.4631 11.2788 87.8968 11.4099C88.3405 11.541 88.7439 11.7175 89.107 11.9394C89.4701 12.1612 89.7626 12.4537 89.9845 12.8168C90.2164 13.1799 90.3324 13.6388 90.3324 14.1935C90.3324 14.7885 90.166 15.3331 89.8332 15.8273C89.5004 16.3215 89.0011 16.7199 88.3355 17.0224C87.6799 17.325 86.8479 17.4763 85.8393 17.4763Z" fill="#2E2A2A"/>
<path d="M64.2805 17.2948V6.70508H66.3077L70.8159 14.1784H69.7418L74.1743 6.70508H76.1863L76.2166 17.2948H73.9171L73.902 10.2299H74.3256L70.7856 16.1753H69.6813L66.0656 10.2299H66.58V17.2948H64.2805Z" fill="#2E2A2A"/>
</svg>
