<svg width="20" height="20" viewBox="0 0 20 20" fill="none" xmlns="http://www.w3.org/2000/svg">
<mask id="mask0_1_3761" style="mask-type:alpha" maskUnits="userSpaceOnUse" x="0" y="0" width="20" height="20">
<rect width="20" height="20" fill="#D9D9D9"/>
</mask>
<g mask="url(#mask0_1_3761)">
<path d="M11.1667 10L5.29167 4.125C5.09722 3.93055 5 3.69444 5 3.41667C5 3.13889 5.09722 2.90278 5.29167 2.70833C5.48611 2.51389 5.72222 2.41667 6 2.41667C6.27778 2.41667 6.51389 2.51389 6.70833 2.70833L12.9375 8.9375C13.0903 9.09028 13.2014 9.25694 13.2708 9.4375C13.3403 9.61805 13.375 9.80555 13.375 10C13.375 10.1944 13.3403 10.3819 13.2708 10.5625C13.2014 10.7431 13.0903 10.9097 12.9375 11.0625L6.70833 17.2917C6.51389 17.4861 6.27778 17.5833 6 17.5833C5.72222 17.5833 5.48611 17.4861 5.29167 17.2917C5.09722 17.0972 5 16.8611 5 16.5833C5 16.3056 5.09722 16.0694 5.29167 15.875L11.1667 10Z" fill="black" fill-opacity="0.12"/>
</g>
</svg>
