<svg width="16" height="17" viewBox="0 0 16 17" fill="none" xmlns="http://www.w3.org/2000/svg">
<mask id="mask0_1_1382" style="mask-type:alpha" maskUnits="userSpaceOnUse" x="0" y="0" width="16" height="17">
<rect x="16" y="16.3145" width="16" height="16" transform="rotate(-180 16 16.3145)" fill="#D9D9D9"/>
</mask>
<g mask="url(#mask0_1_1382)">
<path d="M6.41628 8.31419L11.1163 13.0142C11.2718 13.1697 11.3496 13.3586 11.3496 13.5809C11.3496 13.8031 11.2718 13.992 11.1163 14.1475C10.9607 14.3031 10.7718 14.3809 10.5496 14.3809C10.3274 14.3809 10.1385 14.3031 9.98294 14.1475L4.99961 9.16419C4.87739 9.04197 4.7885 8.90864 4.73294 8.76419C4.67739 8.61975 4.64961 8.46975 4.64961 8.31419C4.64961 8.15864 4.67739 8.00864 4.73294 7.86419C4.7885 7.71975 4.87739 7.58641 4.99961 7.46419L9.98294 2.48086C10.1385 2.3253 10.3274 2.24753 10.5496 2.24753C10.7718 2.24753 10.9607 2.3253 11.1163 2.48086C11.2718 2.63642 11.3496 2.8253 11.3496 3.04753C11.3496 3.26975 11.2718 3.45864 11.1163 3.61419L6.41628 8.31419Z" fill="#0DB031"/>
</g>
</svg>
