<svg clip-rule="evenodd" fill-rule="evenodd" height="300" image-rendering="optimizeQuality" shape-rendering="geometricPrecision" text-rendering="geometricPrecision" viewBox="0 0 1.70666 1.70666" width="300" xmlns="http://www.w3.org/2000/svg" version="1.1" xmlns:xlink="http://www.w3.org/1999/xlink" xmlns:svgjs="http://svgjs.dev/svgjs"><g width="100%" height="100%" transform="matrix(1,0,0,1,0,0)"><g id="Layer_x0020_1" fill-rule="nonzero"><path d="m1.49825 1.2801c.0384961-.0581378.0693661-.121811.0911654-.189583.0239606-.0744921.0369055-.154185.0369055-.237185 0-.0825315-.012748-.161713-.0363622-.235697-.0214016-.0670433-.0517913-.130217-.0897638-.188114-.0920354.0348346-.191374.0625039-.296177.0817953-.112193.0206496-.230157.0317126-.351606.0317126s-.239413-.011063-.351606-.0317126c-.104803-.0192913-.204138-.0469606-.296177-.0817953-.0379724.0578976-.0683622.121071-.0897677.188118-.0236142.0739843-.0363622.153165-.0363622.235693 0 .083.0129449.162693.0369055.237181.0217992.0677717.0526693.131445.0911654.189587.0918543-.034626.190929-.0621181.295406-.0812756.111854-.0205157.229425-.0315.350433-.0315.121016 0 .238587.0109882.350445.0315.104472.0191575.203543.0466496.295398.0812756zm.164803-.165945c-.0270157.0839961-.0667638.162339-.116957.232764-.00955512.0162362-.0297874.0235079-.047815.0162992l.0144055-.0360157-.0143976.0359094c-.0952441-.0380906-.199154-.0680118-.309378-.0882244-.106472-.0195276-.219331-.0299843-.336504-.0299843-.117165 0-.230024.0104567-.336496.0299803-.10924.0200354-.212276.0496063-.306819.0872087-.0166693.00812598-.0372598.0033189-.0484528-.012248l.00011811-.00008268c-.0511575-.0711575-.0916102-.15048-.118992-.23561-.0265197-.0824449-.0408425-.170098-.0408425-.260819 0-.0899724.014126-.177024.0403031-.259024.0267559-.0838189.0660197-.161874.115567-.231949.00962598-.0160866.0297756-.0232441.0477205-.0160354l-.00003543.00009055c.0954961.0383583.199709.0684882.310268.0888386.106827.0196654.220083.0302008.337665.0302008.117583 0 .230839-.0105354.337665-.0302008.109567-.0201654.212898-.0499449.307689-.0878071.0167402-.00818504.0374213-.00331102.0485906.0123622l-.0315906.0225079.0315157-.0224252c.050374.0707087.0902441.14961.117315.234413.0261732.082.0403031.169051.0403031.259028 0 .0907205-.0143268.178374-.0408465.260823z" fill="#0db031" fill-opacity="1" data-original-color="#000000ff" stroke="none" stroke-opacity="1"/><path d="m1.45265.364618c-.0670787-.0822835-.150748-.150524-.245913-.199614-.106031-.0546969-.226488-.0855827-.354323-.0855827s-.248295.0308858-.354327.0855827c-.0951654.0490906-.178835.117331-.245913.199614.0821654.0297756.170154.053622.262571.0706339.106831.0196654.220087.0302008.337669.0302008.117583 0 .230839-.0105354.337665-.0302008.0924213-.0170118.180409-.0408583.262571-.0706339zm-.210457-.268402c.120256.0620354.223835.151906.302236.261091.00259055.00307874.00474803.00661024.00633071.0105512.00798425.019874-.00165748.0424646-.0215354.0504488l-.0144567-.0359921.0143937.0359094c-.100043.040185-.209252.0717559-.325142.0930906-.112193.0206496-.230157.0317126-.351606.0317126s-.239413-.011063-.351606-.0317126c-.114846-.0211417-.22313-.0523386-.322433-.0920079-.00377559-.00119291-.0074252-.00298425-.0108189-.00540157-.0174488-.0124291-.0215157-.0366535-.00908661-.0540984l.00008661.00006299c.0786142-.110343.182878-.201134.304075-.263657.116921-.060311.249453-.0943701.389783-.0943701.140327 0 .272858.0340591.38978.094374z" fill="#0db031" fill-opacity="1" data-original-color="#000000ff" stroke="none" stroke-opacity="1"/><path d="m.852409 1.62724c.127335 0 .24728-.0305827.35289-.0847795.094622-.0485551.177961-.116087.245024-.197571-.0818268-.0295-.169421-.0531339-.261417-.0700039-.106472-.0195276-.219327-.0299843-.336496-.0299843s-.230028.0104567-.336504.0299843c-.0919921.0168701-.179587.0405-.261413.0700039.067063.0814843.150406.149016.245028.197571.10561.0541969.225551.0847795.35289.0847795zm.388039-.0159921c-.116559.059815-.24848.0935709-.388039.0935709-.139563 0-.27148-.0337559-.388043-.0935709-.119799-.0614764-.223091-.150469-.301512-.258594-.00277559-.00319291-.0050748-.00689764-.00673622-.0110472-.00795276-.0198898.00172441-.0424646.0216142-.0504173l.00003543.00009055c.0998307-.0399213.208717-.0712795.324201-.0924567.111854-.0205118.229429-.0314961.350441-.0314961s.238579.0109843.350433.0314961c.114425.0209843.22237.0519606.321449.0913622.00385039.00120866.00757874.00303937.0110354.00552362.0173898.0125079.0213543.0367441.00885039.0541378l-.0314921-.0226457.0313622.0225787c-.0786732.109425-.182736.199449-.303598.261469z" fill="#0db031" fill-opacity="1" data-original-color="#000000ff" stroke="none" stroke-opacity="1"/><path d="m1.21909.853331c0-.21837-.0438228-.41539-.114669-.55739-.0667441-.133776-.156024-.216516-.252012-.216516-.0959882 0-.185272.0827402-.252012.216516-.0708465.142-.114669.33902-.114669.55739s.0438228.41539.114669.55739c.0667402.133776.156024.216516.252012.216516.0959882 0 .185268-.0827402.252012-.216516.0708465-.142.114669-.33902.114669-.55739zm-.0452756-.591933c.0759016.152134.12285.361465.12285.591933 0 .230469-.0469488.439799-.12285.591933-.0800079.160366-.193465.259551-.321406.259551s-.241402-.099185-.321409-.259551c-.0758976-.152134-.12285-.361465-.12285-.591933 0-.230469.0469528-.439799.12285-.591933.0800079-.160366.193469-.259551.321409-.259551.127941 0 .241398.099185.321406.259551z" fill="#0db031" fill-opacity="1" data-original-color="#000000ff" stroke="none" stroke-opacity="1"/><path d="m.891197.0406299c0-.0214213-.0173661-.0387874-.0387874-.0387874s-.0387913.0173661-.0387913.0387874v1.6254c0 .0214213.0173701.0387874.0387913.0387874.0214213 0 .0387874-.0173661.0387874-.0387874v-1.6254z" fill="#0db031" fill-opacity="1" data-original-color="#000000ff" stroke="none" stroke-opacity="1"/><path d="m.0397087.814543c-.0214213 0-.0387874.0173661-.0387874.0387874s.0173661.0387874.0387874.0387874h1.6254c.0214213 0 .0387874-.0173661.0387874-.0387874s-.0173661-.0387874-.0387874-.0387874h-1.6254z" fill="#0db031" fill-opacity="1" data-original-color="#000000ff" stroke="none" stroke-opacity="1"/><path d="m.193012 1.5903c0-.0107126-.00433858-.0204134-.0113583-.0274291-.00701575-.00701575-.0167126-.0113543-.0274291-.0113543-.0107126 0-.0204134.00433858-.0274252.0113543-.00701969.00701575-.0113583.0167165-.0113583.0274291s.00434252.0204134.0113583.0274291c.00701181.00701575.0167126.0113583.0274252.0113583.0107165 0 .0204134-.00434252.0274291-.0113583.00701575-.00701575.0113583-.0167165.0113583-.0274291zm.0434921-.0822756c.0210591.0210551.0340866.0501496.0340866.0822756 0 .0321299-.0130276.0612205-.0340866.0822795-.0210591.0210551-.0501496.0340866-.0822795.0340866s-.0612205-.0130315-.0822756-.0340866c-.0210591-.0210591-.0340866-.0501496-.0340866-.0822795 0-.032126.0130276-.0612205.0340866-.0822756.0210551-.0210591.0501457-.0340866.0822756-.0340866s.0612205.0130276.0822795.0340866z" fill="#0db031" fill-opacity="1" data-original-color="#000000ff" stroke="none" stroke-opacity="1"/><path d="m1.62817.116362c0-.0107126-.00434252-.0204134-.0113583-.0274291-.00701575-.00701575-.0167165-.0113583-.0274291-.0113583s-.0204134.00434252-.0274291.0113583c-.00701575.00701575-.0113583.0167165-.0113583.0274291s.00434252.0204134.0113583.0274291c.00701575.00701575.0167165.0113543.0274291.0113543s.0204134-.00433858.0274291-.0113543c.00701575-.00701575.0113583-.0167165.0113583-.0274291zm.0434921-.0822795c.0210551.0210591.0340827.0501496.0340827.0822795 0 .032126-.0130276.0612205-.0340827.0822756-.0210591.0210591-.0501496.0340866-.0822795.0340866-.032126 0-.0612205-.0130276-.0822756-.0340866-.0210591-.0210551-.0340866-.0501496-.0340866-.0822756 0-.0321299.0130276-.0612205.0340866-.0822795.0210551-.0210551.0501496-.0340866.0822756-.0340866.0321299 0 .0612205.0130315.0822795.0340866z" fill="#0db031" fill-opacity="1" data-original-color="#000000ff" stroke="none" stroke-opacity="1"/></g></g></svg>