<svg width="48" height="48" viewBox="0 0 48 48" fill="none" xmlns="http://www.w3.org/2000/svg">
<path d="M30 26C30 24.4087 29.3679 22.8826 28.2426 21.7574C27.1174 20.6321 25.5913 20 24 20C22.4087 20 20.8826 20.6321 19.7574 21.7574C18.6321 22.8826 18 24.4087 18 26" stroke="#0DB031" stroke-width="3.5" stroke-linecap="round" stroke-linejoin="round"/>
<path d="M8 39V9C8 7.67392 8.52678 6.40215 9.46447 5.46447C10.4021 4.52678 11.6739 4 13 4H38C38.5304 4 39.0391 4.21071 39.4142 4.58579C39.7893 4.96086 40 5.46957 40 6V42C40 42.5304 39.7893 43.0391 39.4142 43.4142C39.0391 43.7893 38.5304 44 38 44H13C11.6739 44 10.4021 43.4732 9.46447 42.5355C8.52678 41.5979 8 40.3261 8 39ZM8 39C8 37.6739 8.52678 36.4021 9.46447 35.4645C10.4021 34.5268 11.6739 34 13 34H40" stroke="#0DB031" stroke-width="3.5" stroke-linecap="round" stroke-linejoin="round"/>
<path d="M24 20C26.2091 20 28 18.2091 28 16C28 13.7909 26.2091 12 24 12C21.7909 12 20 13.7909 20 16C20 18.2091 21.7909 20 24 20Z" stroke="#0DB031" stroke-width="3.5" stroke-linecap="round" stroke-linejoin="round"/>
</svg>
