<svg width="48" height="48" viewBox="0 0 48 48" fill="none" xmlns="http://www.w3.org/2000/svg">
<path d="M8 4V44L12 42L16 44L20 42L24 44L28 42L32 44L36 42L40 44V4L36 6L32 4L28 6L24 4L20 6L16 4L12 6L8 4Z" stroke="#0DB031" stroke-width="3.5" stroke-linecap="round" stroke-linejoin="round"/>
<path d="M16 14H32" stroke="#0DB031" stroke-width="3.5" stroke-linecap="round" stroke-linejoin="round"/>
<path d="M24 35L16 30H18C20.1217 30 22.1566 29.1571 23.6569 27.6569C25.1571 26.1566 26 24.1217 26 22C26 19.8783 25.1571 17.8434 23.6569 16.3431C22.1566 14.8429 20.1217 14 18 14" stroke="#0DB031" stroke-width="3.5" stroke-linecap="round" stroke-linejoin="round"/>
<path d="M16 22H32" stroke="#0DB031" stroke-width="3.5" stroke-linecap="round" stroke-linejoin="round"/>
</svg>
