<svg width="48" height="48" viewBox="0 0 48 48" fill="none" xmlns="http://www.w3.org/2000/svg">
<path d="M22 30H26C27.0609 30 28.0783 29.5786 28.8284 28.8284C29.5786 28.0783 30 27.0609 30 26C30 24.9391 29.5786 23.9217 28.8284 23.1716C28.0783 22.4214 27.0609 22 26 22H20C18.8 22 17.8 22.4 17.2 23.2L6 34" stroke="#0DB031" stroke-width="3" stroke-linecap="round" stroke-linejoin="round"/>
<path d="M14 42.0001L17.2 39.2001C17.8 38.4001 18.8 38.0001 20 38.0001H28C30.2 38.0001 32.2 37.2001 33.6 35.6001L42.8 26.8001C43.5718 26.0707 44.0222 25.0646 44.0522 24.0032C44.0822 22.9417 43.6893 21.9118 42.96 21.1401C42.2307 20.3683 41.2246 19.9178 40.1631 19.8878C39.1017 19.8578 38.0718 20.2507 37.3 20.9801L28.9 28.7801" stroke="#0DB031" stroke-width="3" stroke-linecap="round" stroke-linejoin="round"/>
<path d="M4 32L16 44" stroke="#0DB031" stroke-width="3" stroke-linecap="round" stroke-linejoin="round"/>
<path d="M32 23.8C35.2032 23.8 37.7999 21.2032 37.7999 18C37.7999 14.7967 35.2032 12.2 32 12.2C28.7967 12.2 26.2 14.7967 26.2 18C26.2 21.2032 28.7967 23.8 32 23.8Z" stroke="#0DB031" stroke-width="3" stroke-linecap="round" stroke-linejoin="round"/>
<path d="M12 16C15.3137 16 18 13.3137 18 10C18 6.68629 15.3137 4 12 4C8.68629 4 6 6.68629 6 10C6 13.3137 8.68629 16 12 16Z" stroke="#0DB031" stroke-width="3" stroke-linecap="round" stroke-linejoin="round"/>
</svg>
