<svg width="16" height="17" viewBox="0 0 16 17" fill="none" xmlns="http://www.w3.org/2000/svg">
<mask id="mask0_4_3838" style="mask-type:alpha" maskUnits="userSpaceOnUse" x="0" y="0" width="16" height="17">
<rect y="0.314453" width="16" height="16" fill="#D9D9D9"/>
</mask>
<g mask="url(#mask0_4_3838)">
<path d="M8.93333 8.31471L4.23333 3.61471C4.07778 3.45916 4 3.27027 4 3.04805C4 2.82582 4.07778 2.63694 4.23333 2.48138C4.38889 2.32582 4.57778 2.24805 4.8 2.24805C5.02222 2.24805 5.21111 2.32582 5.36667 2.48138L10.35 7.46471C10.4722 7.58694 10.5611 7.72027 10.6167 7.86471C10.6722 8.00916 10.7 8.15916 10.7 8.31471C10.7 8.47027 10.6722 8.62027 10.6167 8.76471C10.5611 8.90916 10.4722 9.04249 10.35 9.16471L5.36667 14.148C5.21111 14.3036 5.02222 14.3814 4.8 14.3814C4.57778 14.3814 4.38889 14.3036 4.23333 14.148C4.07778 13.9925 4 13.8036 4 13.5814C4 13.3592 4.07778 13.1703 4.23333 13.0147L8.93333 8.31471Z" fill="#0DB031"/>
</g>
</svg>
