<svg width="49" height="48" viewBox="0 0 49 48" fill="none" xmlns="http://www.w3.org/2000/svg">
<path d="M40.3333 26C40.3333 36 33.3333 41 25.0133 43.9C24.5776 44.0477 24.1043 44.0406 23.6733 43.88C15.3333 41 8.33325 36 8.33325 26V12C8.33325 11.4696 8.54397 10.9609 8.91904 10.5858C9.29411 10.2108 9.80282 10 10.3333 10C14.3333 10 19.3333 7.60004 22.8133 4.56004C23.237 4.19804 23.776 3.99915 24.3333 3.99915C24.8905 3.99915 25.4295 4.19804 25.8533 4.56004C29.3533 7.62004 34.3333 10 38.3333 10C38.8637 10 39.3724 10.2108 39.7475 10.5858C40.1225 10.9609 40.3333 11.4696 40.3333 12V26Z" stroke="#0DB031" stroke-width="3" stroke-linecap="round" stroke-linejoin="round"/>
<path d="M18.3333 24L22.3333 28L30.3333 20" stroke="#0DB031" stroke-width="3" stroke-linecap="round" stroke-linejoin="round"/>
</svg>
