<svg width="49" height="48" viewBox="0 0 49 48" fill="none" xmlns="http://www.w3.org/2000/svg">
<path d="M26.6668 14L18.0668 5.39997C17.1636 4.50108 15.9411 3.99646 14.6668 3.99646C13.3925 3.99646 12.1701 4.50108 11.2668 5.39997L6.06684 10.6C5.16795 11.5032 4.66333 12.7257 4.66333 14C4.66333 15.2743 5.16795 16.4967 6.06684 17.4L14.6668 26" stroke="#0DB031" stroke-width="3" stroke-linecap="round" stroke-linejoin="round"/>
<path d="M16.6667 12L20.6667 8" stroke="#0DB031" stroke-width="3" stroke-linecap="round" stroke-linejoin="round"/>
<path d="M36.6667 32L40.6667 28" stroke="#0DB031" stroke-width="3" stroke-linecap="round" stroke-linejoin="round"/>
<path d="M34.6667 22L43.2667 30.6C45.1467 32.48 45.1467 35.52 43.2667 37.4L38.0667 42.6C36.1867 44.48 33.1467 44.48 31.2667 42.6L22.6667 34" stroke="#0DB031" stroke-width="3" stroke-linecap="round" stroke-linejoin="round"/>
<path d="M43.0149 13.624C44.0723 12.5669 44.6664 11.133 44.6666 9.63774C44.6668 8.14251 44.073 6.70845 43.0159 5.65103C41.9587 4.59361 40.5248 3.99946 39.0296 3.99927C37.5343 3.99908 36.1003 4.59288 35.0429 5.65003L8.35086 32.348C7.8865 32.811 7.54309 33.3811 7.35086 34.008L4.70886 42.712C4.65717 42.885 4.65327 43.0687 4.69756 43.2437C4.74186 43.4187 4.8327 43.5785 4.96045 43.706C5.08821 43.8336 5.2481 43.9242 5.42318 43.9682C5.59825 44.0122 5.78198 44.008 5.95486 43.956L14.6609 41.316C15.2872 41.1255 15.8572 40.7842 16.3209 40.322L43.0149 13.624Z" stroke="#0DB031" stroke-width="3" stroke-linecap="round" stroke-linejoin="round"/>
<path d="M30.6667 10L38.6667 18" stroke="#0DB031" stroke-width="3" stroke-linecap="round" stroke-linejoin="round"/>
</svg>
