<svg width="48" height="48" viewBox="0 0 48 48" fill="none" xmlns="http://www.w3.org/2000/svg">
<path d="M26.4559 43.85C22.3975 44.3523 18.2827 43.5985 14.666 41.6902C11.0492 39.7818 8.1044 36.8107 6.22829 33.1771C4.35219 29.5435 3.635 25.4222 4.17337 21.3684C4.71174 17.3147 6.4798 13.5234 9.23928 10.5055C11.9988 7.48754 15.617 5.38802 19.6065 4.48985C23.596 3.59167 27.7649 3.93801 31.5515 5.48218C35.3381 7.02635 38.5603 9.69415 40.784 13.126C43.0076 16.558 44.1258 20.589 43.9879 24.676" stroke="#0DB031" stroke-width="3" stroke-linecap="round" stroke-linejoin="round"/>
<path d="M24 12V24L27.124 25.562" stroke="#0DB031" stroke-width="3" stroke-linecap="round" stroke-linejoin="round"/>
<path d="M28 36L36 28L44 36" stroke="#0DB031" stroke-width="3" stroke-linecap="round" stroke-linejoin="round"/>
<path d="M36 44V28" stroke="#0DB031" stroke-width="3" stroke-linecap="round" stroke-linejoin="round"/>
</svg>
